<?xml version="1.0" standalone="no"?>
<svg xmlns:xlink="http://www.w3.org/1999/xlink" id="wave" style="transform:rotate(180deg); transition: 0.3s" viewBox="0 0 1440 270" version="1.1" xmlns="http://www.w3.org/2000/svg"><defs><linearGradient id="sw-gradient-0" x1="0" x2="0" y1="1" y2="0"><stop stop-color="rgba(20, 20, 50, 1)" offset="0%"/><stop stop-color="rgba(20, 20, 50, 1)" offset="100%"/></linearGradient></defs><path style="transform:translate(0, 0px); opacity:1" fill="url(#sw-gradient-0)" d="M0,216L48,198C96,180,192,144,288,108C384,72,480,36,576,45C672,54,768,108,864,108C960,108,1056,54,1152,27C1248,0,1344,0,1440,18C1536,36,1632,72,1728,112.5C1824,153,1920,198,2016,211.5C2112,225,2208,207,2304,184.5C2400,162,2496,135,2592,130.5C2688,126,2784,144,2880,135C2976,126,3072,90,3168,72C3264,54,3360,54,3456,67.5C3552,81,3648,108,3744,121.5C3840,135,3936,135,4032,121.5C4128,108,4224,81,4320,94.5C4416,108,4512,162,4608,166.5C4704,171,4800,126,4896,94.5C4992,63,5088,45,5184,63C5280,81,5376,135,5472,148.5C5568,162,5664,135,5760,144C5856,153,5952,198,6048,211.5C6144,225,6240,207,6336,193.5C6432,180,6528,171,6624,139.5C6720,108,6816,54,6864,27L6912,0L6912,270L6864,270C6816,270,6720,270,6624,270C6528,270,6432,270,6336,270C6240,270,6144,270,6048,270C5952,270,5856,270,5760,270C5664,270,5568,270,5472,270C5376,270,5280,270,5184,270C5088,270,4992,270,4896,270C4800,270,4704,270,4608,270C4512,270,4416,270,4320,270C4224,270,4128,270,4032,270C3936,270,3840,270,3744,270C3648,270,3552,270,3456,270C3360,270,3264,270,3168,270C3072,270,2976,270,2880,270C2784,270,2688,270,2592,270C2496,270,2400,270,2304,270C2208,270,2112,270,2016,270C1920,270,1824,270,1728,270C1632,270,1536,270,1440,270C1344,270,1248,270,1152,270C1056,270,960,270,864,270C768,270,672,270,576,270C480,270,384,270,288,270C192,270,96,270,48,270L0,270Z"/></svg>